 <svg
            xmlns="http://www.w3.org/2000/svg"
            width="15"
            height="15"
            viewBox="0 0 15 15"
          >
            <g
              id="Group_23410"
              data-name="Group 23410"
              transform="translate(-14626.114 -2041.764)"
            >
              <rect
                id="Rectangle_4577"
                data-name="Rectangle 4577"
                width="15"
                height="15"
                transform="translate(14626.114 2041.764)"
                fill="none"
              />
              <g id="apple" transform="translate(14627.428 2041.875)">
                <path
                  id="Path_41862"
                  data-name="Path 41862"
                  d="M12.372,10.791a8.571,8.571,0,0,1-1.092,2.22Q10.134,14.752,9,14.752a4.1,4.1,0,0,1-1.243-.284,3.926,3.926,0,0,0-1.341-.284,3.419,3.419,0,0,0-1.261.293,3.211,3.211,0,0,1-1.172.3q-1.35,0-2.673-2.3A9.1,9.1,0,0,1,0,8.011,5.269,5.269,0,0,1,1,4.689,3.082,3.082,0,0,1,3.526,3.41,5.91,5.91,0,0,1,5.1,3.677a5.72,5.72,0,0,0,1.226.266,4.445,4.445,0,0,0,1.27-.3,5.017,5.017,0,0,1,1.536-.3,3.247,3.247,0,0,1,1.892.577,4.582,4.582,0,0,1,.924.888,5.751,5.751,0,0,0-1.012,1.048,3.163,3.163,0,0,0-.577,1.838,3.382,3.382,0,0,0,.613,1.981A2.7,2.7,0,0,0,12.372,10.791ZM9.032.373a3.386,3.386,0,0,1-.258,1.208,3.645,3.645,0,0,1-.826,1.226,2.517,2.517,0,0,1-.959.639,4.962,4.962,0,0,1-.924.151,4.049,4.049,0,0,1,.693-2.282A3.539,3.539,0,0,1,8.979,0,.867.867,0,0,1,9,.1a.867.867,0,0,0,.022.1q0,.036,0,.089T9.032.373Z"
                  fill="#888"
                />
              </g>
            </g>
          </svg>